<svg alt="" xmlns="http://www.w3.org/2000/svg" xmlns:xlink="http://www.w3.org/1999/xlink" version="1.1" id="svg-dus-flag" class="svg-us-flag" viewBox="25.63 110 546.27 345.1">
<defs>
	<linearGradient id="svg-flag-gradient" x1="100%" y1="100%">
		<stop offset="100%" stop-color="#E55567">
		<animate attributeName="stop-color" values="#000000;#E55567;#FFFFFF;#6F6EA1;#000000;" dur="20s" repeatCount="indefinite"></animate>
		</stop>
		<stop offset="100%" stop-color="#FFFFFF">
		<animate attributeName="stop-color" values="#000000;#E55567;#FFFFFF;#6F6EA1;#000000;" dur="20s" repeatCount="indefinite"></animate>
		</stop>
		<stop offset="100%" stop-color="#6F6EA1">
		<animate attributeName="stop-color" values="#000000;#E55567;#FFFFFF;#6F6EA1;#000000;" dur="20s" repeatCount="indefinite"></animate>
		</stop>
	</linearGradient>
</defs>
<g>
	<path class="svg-us-flag-path" d="M443.8,386.1c-6.2-6.8-9.7-13.7-10.3-20.6l-135.4,0h-96.3l0,0h0l5.6,5.8c5,2.1,4.4,5.7,4.4,5.8l0.8,6.8   c0.4,0.7,1,1.5,1.8,2.2l15.7,0c1.2-1.9,3.8-2,3.8-2l9.6,1.8l0.2,0.2l114,0c1.1-0.7,1.8-1.4,1.9-2.2c0.1-0.7-0.2-1.2-0.3-1.2   c-1.8-1.2-2.6-2.1-2.4-2.9c0.2-1,2.1-1.2,2.1-1.2c4.2,0,10.6-1.5,10.7-1.6c0.2-2.4,2.2-2.8,2.2-2.8c0.2,0.1,0.4,0.2,0.6,0.4   c0.6,1-0.1,3.3-0.3,4c0,0.1-0.1,0.2-0.1,0.2c0,0,0,0,0,0c0,0,0,0,0,0c5.6-2,14-2.2,14.1-2.2c8.9,0.4,11.9,5.4,12,5.4l3.5-0.1   c4.6-4.8,6.8-5.8,7.8-5.8c0.6,0,0.8,0.4,0.8,0.4c5.5,4.1,10.9,8,11,8c1.4,0,2.4,0.5,3,1.4L443.8,386.1L443.8,386.1z"/>
	<path class="svg-us-flag-path" d="M270.1,409.6h-10.3c0,0,0,0,0,0l0,0c0.3,0.3,0.6,0.5,0.6,0.5l0,4.6l3.2,8.4l9.6,4.6c5.3,0,6.5,2,6.7,2.4h0.2   l2.5-1.3c-3.6-8.3,0.3-17.5,0.4-17.6c0.1-0.3,0.3-0.5,0.5-0.8c0.2-0.3,0.4-0.6,0.6-0.9h0c0,0,0,0,0,0L270.1,409.6z"/>
	<path class="svg-us-flag-path" d="M382.2,204.3c-2.5,0-2.7,1.4-2.8,1.4c0.2,1,0.2,1.8-0.2,2.4c-0.6,0.9-1.6,1.2-1.6,1.2l0,0.4h17.1l-0.5-1.2   l-3.9-1.7c0,0-2.2-1.5-6.3-2.3C383.3,204.4,382.7,204.3,382.2,204.3z"/>
	<path class="svg-us-flag-path" d="M506.7,165.6l-1.5-3.7l-3.8-0.9c-1.4,1.6-2.6,2.3-3.5,2.3c-0.9,0-1.2-1-1.3-1.1c0,0,0,0,0,0l0,0c0,0,0,0,0,0   l-2.7,1.4l-0.5,1.5l-0.1,0.4h0l0,0H506.7z"/>
	<path class="svg-us-flag-path" d="M455,409.7c0-0.1,0-0.1,0-0.2l-21.4,0l-0.1,2.1c2.8,0.6,4.6,7,4.6,7.1l4.4,0.7c0.1,0,0.1,0,0.2,0   c2.6,0,3.4,6.3,3.4,6.4c0.4,0.1,0.9,0.1,1.3,0.1c3.6,0,5.4-3.1,5.4-3.1l0.5-4.1l1.3-1.1c0.4-2.6,0.6-4.9,0.4-6.9   C455.1,410.4,455,410.1,455,409.7z"/>
	<path class="svg-us-flag-path" d="M516.9,189.2L516.9,189.2L516.9,189.2l-31.4,0c-1.1,1.5-1,3.9-1,3.9l-3.2,0.6l-22.6,5.7l-5.1,6.4l-3.3,4h0l0,0   h47.5l0.5-2.5l1-4.5l2.5-0.5l5-3.7c0,0-0.6-4.5,0-5.2c0.1-0.1,0.1-0.1,0.2-0.1c0.1,0,0.1,0,0.2,0.1c0.5,0.4,1.2,0.8,1.9,0.8   c0.7,0,1.2-0.5,1.3-1.5c0.1-0.7,0.5-1,1.1-1c0.8,0,1.8,0.7,1.9,0.7l2-1.8L516.9,189.2z"/>
	<path class="svg-us-flag-path" d="M489.5,236.7C489.4,236.7,489.4,236.7,489.5,236.7c-1.2,1.3-6.3,2.3-7.8,2.5c-0.2,0-0.4,0.1-0.4,0.1   c1.1-2,4.8-3.7,7.7-4.8c0.7-0.2,1.3-0.5,1.9-0.7h-0.1c0,0,0.1,0,0.1,0l-62.5,0c-4.1,3.8-9.8,8.9-13.9,11.5c-4.7,3-7,3.5-8,3.5   c-0.4,0-0.5-0.1-0.5-0.1c-3.5-0.1-7.4-1.2-7.6-1.8c0,0,0-0.1,0-0.1c0.6-0.5,2-3,2-3.1c-0.4-0.8-0.1-3.3,0.8-3.9   c1-0.6,1.2-2.7,1.2-2.8c0,0,0.1,0,0.1,0c1,0,1.5-1,1.6-3c0,0,0-0.1,0-0.1h0c0,0,0,0,0,0h-31.3l0,0.1l0,0c0.2,0.4,0.3,0.7,0.4,1.1   c1.3,3.3,1.3,6.3,0,9.7c-1.1,3-2.5,4-3.6,4.7c-0.3,0.2-0.6,0.4-0.8,0.6c-0.5,0.5-1.3,0.6-1.9,0.6c-0.6,0-1-0.1-1-0.1l-1.5-1.1   c0-0.1,0.1-1.8-0.4-2.3c-0.1-0.1-0.1-0.1-0.2-0.1c-0.6,0-1.4-1.4-1.4-1.4l-0.6-2.5c0-0.2,0.1-3.9-0.5-4.3c-0.6-0.4,0-3.4,0-3.4   c-0.6-0.1-0.9-0.7-0.8-1.6l-83.5,0v-24.1h0v0h85.7l0,0c0.1-0.8,0.6-1.6,1.1-2.3c0.3-0.4,0.5-0.7,0.7-1.1c0.4-0.9,2.4-1,3-1l0.1,0   c0.3,0.7,0.6,1,1,1c0.7,0,1.3-1,1.3-1l0-1.8l1.2,0l0.6-0.7c0.5,0,0.9,0,1.3,0c1.8,0,2.4-0.3,2.6-0.6c0.1-0.2,0-0.4,0-0.4   c0.2-0.5,0.7-0.8,1.4-0.8c0.7,0,1.5,0.3,1.5,0.3c0.3,0.4,0.9,0.5,1.7,0.5c1.5,0,3.2-0.5,3.3-0.5h4.4c1.2,0,1.2-0.5,1.2-0.6   l-1.3-1.3l-1-0.9l0-2.8c-0.2-0.7-0.7-1.1-1.4-1.1c-1.1,0-2.3,0.8-2.3,0.8c-0.6,0.2-1.1,0.3-1.7,0.3c-1.1,0-1.7-0.4-1.7-0.4   c0-0.9-0.2-1.5-0.6-2c-0.5-0.5-1.3-0.6-1.8-0.6c-0.6,0-1,0.1-1,0.1l-0.8,0.7l-3.7-0.1l-1.1,1.3l-2,0.5l0,1.1l-1.7,0.8   c-0.2,0.1-0.8,0.2-1.7,0.2c-1.1,0-2.4-0.1-2.4-0.1c-0.1,0-0.2,0-0.3,0c-1.9,0-3-2.9-3.1-3l-1.6,0.2l-0.1,0l0-1.3v-0.1l0,0l0,0   l-2.9,0.2l-1.1,0.1c0.5-1.4,1.4-2.7,2.2-3.8c0.1-0.2,0.3-0.4,0.4-0.5h0c0,0,0,0,0,0l-4,0l-6.6,5.7l-2.5,0.1l-2.7,2.3   c-1.6,0.9-2.8,1.4-3.7,1.4c-0.5,0-1-0.2-1.2-0.5c-0.7-0.9-0.2-2.8-0.2-2.8c0-0.6-0.3-0.8-0.8-0.8c-1.4,0-4.2,1.9-4.3,2   c-1.8,0.9-3.1,1.4-3.9,1.4c-0.4,0-0.6-0.1-0.7-0.3c-0.3-0.4,0.1-1.1,0.1-1.1c0.4-1.2,3.2-3.8,6-6c0.6-0.4,1.1-0.9,1.7-1.3h0   c0,0,0,0,0,0l-56.6,0V173c-11.6-0.4-22.7-1.1-33.4-1.9l0.4,0.7l6.1,0.8l-4.4,4.3l1.1,6.1l-5.5-2.8l-5.4,2.9l1-6.1l-4.5-4.3l6.1-0.9   l0.6-1.1c-11.3-0.9-22.1-2.1-32.2-3.3l1.7,3.3l6.1,0.8l-4.4,4.3l1.1,6.1l-5.5-2.8l-5.4,2.9l1-6.1l-4.5-4.3l6.1-0.9l1.7-3.6   c-4.4-0.6-8.6-1.1-12.7-1.7l0.5,3l-5.5-2.8l-5.4,2.9l0.7-4.5c-8.8-1.4-17-2.9-24.5-4.3l-2.3,2.3l1.1,6.1l-5.5-2.8l-5.4,2.9l1-6.1   l-4.5-4.3l3.7-0.6c-29.5-6.4-45.7-12.2-45.7-12.2l0.2,2.1l1.2,2.8l-1.1,2.1l-1.5-0.1l-0.2,1.7l2.1,3.7l-4-2.8   c-6.2,1.5-11.8-7.2-11.8-7.2l-0.9,1.3l0.6,8.1l2.7,0.4l-2.5,2.5l0.3,4.5l-1.5,1.3l0.2,1l0.6,1.6l-1.4,1.1l-0.4,2l2,1.5l-2,1.5   c-0.1,2.2-1.3,5.8-3,9.8l1.5,3l6.1,0.8l-4.4,4.3l1.1,6.1l-5.5-2.8l-5.4,2.9l0.2-1.4c-3.2,6.1-6.1,10.9-6.1,10.9l-0.8,13   c-1.5,8.8-5.1,10.6-5.1,10.6c-2.5,2,1.2,7,1.2,7c3.2,4.3-0.6,8.6-0.6,8.6v5.1c3.5,0.9,2.7,10.4,2.7,10.4l1.9,1.2l1.7-2l2,1.1   l-1.1,1.2l-1.1,1.5l2.1,0.9l-0.4,2.4l-1.5-0.6l-1.4-0.1l-0.8,4.1c-1.8,1.7,4.6,5.3,4.6,5.3l-2.2,3.7v2.4l5.8,12.3   c1.1,0.8,1.5,2.1,1.5,3.4h201h0v0h191.3l0,0c1.9-1.3,3.5-1.5,4.6-1.5c0.7,0,1.1,0.1,1.3,0.1c0,0,0,0,0,0l0,0c0,0,0,0,0,0   c0,0,0,0,0,0l-3.6-8.3l-3.3,0l-0.4-3.8l-1.5-6.3l-1.7-2.1l-184.4,0h-2.4v-21.9l0,0.3h201.7l0.5-8.1l-2.2-0.5l-0.4-1.2l-0.1-0.2   l5.8-1.1c0.1-0.1,8.7-5.1,9.9-6.5c0.2-0.3,0.3-0.5,0.2-0.7C492.1,236.7,490,236.7,489.5,236.7z M84.2,290.5l-5.5-2.8l-5.4,2.9   l1-6.1l-4.5-4.3l6.1-0.9l2.7-5.6l2.8,5.5l6.1,0.8l-4.4,4.3L84.2,290.5z M83.1,254.2l1.1,6.1l-5.5-2.8l-5.4,2.9l1-6.1l-4.5-4.3   l6.1-0.9l2.7-5.6l2.8,5.5l6.1,0.8L83.1,254.2z M83.1,222.2l1.1,6.1l-5.5-2.8l-5.4,2.9l1-6.1l-4.5-4.3l6.1-0.9l2.7-5.6l2.8,5.5   l6.1,0.8L83.1,222.2z M203,200.9l2.7-5.6l2.8,5.5l6.1,0.8l-4.4,4.3l1.1,6.1l-5.5-2.8l-5.4,2.9l1-6.1l-4.5-4.3L203,200.9z M203,233   l2.7-5.6l2.8,5.5l6.1,0.8l-4.4,4.3l1.1,6.1l-5.5-2.8l-5.4,2.9l1-6.1l-4.5-4.3L203,233z M148.4,187.5l2.7-5.6l2.8,5.5l6.1,0.8   l-4.4,4.3l1.1,6.1l-5.5-2.8l-5.4,2.9l1-6.1l-4.5-4.3L148.4,187.5z M148.4,217.7l2.7-5.6l2.8,5.5l6.1,0.8l-4.4,4.3l1.1,6.1l-5.5-2.8   l-5.4,2.9l1-6.1l-4.5-4.3L148.4,217.7z M148.4,249.7l2.7-5.6l2.8,5.5l6.1,0.8l-4.4,4.3l1.1,6.1l-5.5-2.8l-5.4,2.9l1-6.1l-4.5-4.3   L148.4,249.7z M112.3,156.1l2.7-5.6l2.8,5.5l6.1,0.8l-4.4,4.3l1.1,6.1l-5.5-2.8l-5.4,2.9l1-6.1l-4.5-4.3L112.3,156.1z M120.6,198.1   l-5.5-2.8l-5.4,2.9l1-6.1l-4.5-4.3l6.1-0.9l2.7-5.6l2.8,5.5l6.1,0.8l-4.4,4.3L120.6,198.1z M120.6,228.2l-5.5-2.8l-5.4,2.9l1-6.1   l-4.5-4.3l6.1-0.9l2.7-5.6l2.8,5.5l6.1,0.8l-4.4,4.3L120.6,228.2z M120.6,260.3l-5.5-2.8l-5.4,2.9l1-6.1l-4.5-4.3l6.1-0.9l2.7-5.6   l2.8,5.5l6.1,0.8l-4.4,4.3L120.6,260.3z M94.6,170.7l2.7-5.6l2.8,5.5l6.1,0.8l-4.4,4.3l1.1,6.1l-5.5-2.8L92,182l1-6.1l-4.5-4.3   L94.6,170.7z M94.6,200.9l2.7-5.6l2.8,5.5l6.1,0.8l-4.4,4.3l1.1,6.1l-5.5-2.8l-5.4,2.9l1-6.1l-4.5-4.3L94.6,200.9z M94.6,233   l2.7-5.6l2.8,5.5l6.1,0.8l-4.4,4.3l1.1,6.1l-5.5-2.8l-5.4,2.9l1-6.1l-4.5-4.3L94.6,233z M97.4,271.5l-5.4,2.9l1-6.1l-4.5-4.3   l6.1-0.9l2.7-5.6l2.8,5.5l6.1,0.8l-4.4,4.3l1.1,6.1L97.4,271.5z M120.6,290.5l-5.5-2.8l-5.4,2.9l1-6.1l-4.5-4.3l6.1-0.9l2.7-5.6   l2.8,5.5l6.1,0.8l-4.4,4.3L120.6,290.5z M137.8,274.7l-5.5-2.8l-5.4,2.9l1-6.1l-4.5-4.3l6.1-0.9l2.7-5.6l2.8,5.5l6.1,0.8l-4.4,4.3   L137.8,274.7z M136.7,238.4l1.1,6.1l-5.5-2.8l-5.4,2.9l1-6.1l-4.5-4.3l6.1-0.9l2.7-5.6l2.8,5.5l6.1,0.8L136.7,238.4z M136.7,206.4   l1.1,6.1l-5.5-2.8l-5.4,2.9l1-6.1l-4.5-4.3l6.1-0.9l2.7-5.6l2.8,5.5l6.1,0.8L136.7,206.4z M136.7,176.2l1.1,6.1l-5.5-2.8l-5.4,2.9   l1-6.1l-4.5-4.3l6.1-0.9l2.7-5.6l2.8,5.5l6.1,0.8L136.7,176.2z M156.7,291.1l-5.5-2.8l-5.4,2.9l1-6.1l-4.5-4.3l6.1-0.9l2.7-5.6   l2.8,5.5l6.1,0.8l-4.4,4.3L156.7,291.1z M174.3,275.4l-5.5-2.8l-5.4,2.9l1-6.1l-4.5-4.3l6.1-0.9l2.7-5.6l2.8,5.5l6.1,0.8l-4.4,4.3   L174.3,275.4z M173.2,239.2l1.1,6.1l-5.5-2.8l-5.4,2.9l1-6.1l-4.5-4.3l6.1-0.9l2.7-5.6l2.8,5.5l6.1,0.8L173.2,239.2z M173.2,207.1   l1.1,6.1l-5.5-2.8l-5.4,2.9l1-6.1l-4.5-4.3l6.1-0.9l2.7-5.6l2.8,5.5l6.1,0.8L173.2,207.1z M173.2,176.9l1.1,6.1l-5.5-2.8l-5.4,2.9   l1-6.1l-4.5-4.3l6.1-0.9l2.7-5.6l2.8,5.5l6.1,0.8L173.2,176.9z M192.6,291.5l-5.5-2.8l-5.4,2.9l1-6.1l-4.5-4.3l6.1-0.9l2.7-5.6   l2.8,5.5l6.1,0.8l-4.4,4.3L192.6,291.5z M191.5,255.3l1.1,6.1l-5.5-2.8l-5.4,2.9l1-6.1l-4.5-4.3l6.1-0.9l2.7-5.6l2.8,5.5l6.1,0.8   L191.5,255.3z M191.5,223.2l1.1,6.1l-5.5-2.8l-5.4,2.9l1-6.1l-4.5-4.3l6.1-0.9l2.7-5.6l2.8,5.5l6.1,0.8L191.5,223.2z M191.5,193   l1.1,6.1l-5.5-2.8l-5.4,2.9l1-6.1l-4.5-4.3l6.1-0.9l2.7-5.6l2.8,5.5l6.1,0.8L191.5,193z M205.8,271.5l-5.4,2.9l1-6.1l-4.5-4.3   l6.1-0.9l2.7-5.6l2.8,5.5l6.1,0.8l-4.4,4.3l1.1,6.1L205.8,271.5z M228.9,290l-5.5-2.8l-5.4,2.9l1-6.1l-4.5-4.3l6.1-0.9l2.7-5.6   l2.8,5.5l6.1,0.8l-4.4,4.3L228.9,290z M227.9,253.8l1.1,6.1l-5.5-2.8L218,260l1-6.1l-4.5-4.3l6.1-0.9l2.7-5.6l2.8,5.5l6.1,0.8   L227.9,253.8z M227.9,221.8l1.1,6.1l-5.5-2.8l-5.4,2.9l1-6.1l-4.5-4.3l6.1-0.9l2.7-5.6l2.8,5.5l6.1,0.8L227.9,221.8z M227.9,191.6   l1.1,6.1l-5.5-2.8l-5.4,2.9l1-6.1l-4.5-4.3l6.1-0.9l2.7-5.6l2.8,5.5l6.1,0.8L227.9,191.6z M246.7,275.5l-5.5-2.8l-5.4,2.9l1-6.1   l-4.5-4.3l6.1-0.9l2.7-5.6l2.8,5.5l6.1,0.8l-4.4,4.3L246.7,275.5z M245.6,239.2l1.1,6.1l-5.5-2.8l-5.4,2.9l1-6.1l-4.5-4.3l6.1-0.9   l2.7-5.6l2.8,5.5l6.1,0.8L245.6,239.2z M245.6,207.2l1.1,6.1l-5.5-2.8l-5.4,2.9l1-6.1l-4.5-4.3l6.1-0.9l2.7-5.6l2.8,5.5l6.1,0.8   L245.6,207.2z M265.5,290.7l-5.5-2.8l-5.4,2.9l1-6.1l-4.5-4.3l6.1-0.9l2.7-5.6l2.8,5.5l6.1,0.8l-4.4,4.3L265.5,290.7z M264.4,254.4   l1.1,6.1l-5.5-2.8l-5.4,2.9l1-6.1l-4.5-4.3l6.1-0.9l2.7-5.6l2.8,5.5l6.1,0.8L264.4,254.4z M264.4,222.4l1.1,6.1l-5.5-2.8l-5.4,2.9   l1-6.1l-4.5-4.3l6.1-0.9l2.7-5.6l2.8,5.5l6.1,0.8L264.4,222.4z M264.4,192.2l1.1,6.1l-5.5-2.8l-5.4,2.9l1-6.1l-4.5-4.3l6.1-0.9   l2.7-5.6l2.8,5.5l6.1,0.8L264.4,192.2z"/>
	<path class="svg-us-flag-path" d="M256.2,321.6H96.3c0,0,0,0,0,0h0c4.8,4,4,12.6,4,12.8l20.7,3.2l0.7,2.4l3.8,2.3h317.3l0,0   c3.4-3.5,6.4-5.5,6.5-5.6l3.5-8.4c0.3,0,6.2-1,6.6-1.9c0-0.1,0-0.2,0-0.2c-0.2-0.4-0.3-2.1,0.2-4c0-0.2,0.1-0.3,0.1-0.5h0   c0,0,0,0,0,0L256.2,321.6z"/>
	<path class="svg-us-flag-path" d="M469,277.3l-0.5,2.4c0,0-0.1,0-0.2,0.2c-0.2,0.3-0.4,1.3,0.4,4.4c0.4,1.4,0.9,2.1,1.4,2.1   c0.8,0,1.5-1.5,1.6-1.5l0.4-5.1l1-1.7l0.5-0.8h0l0,0L469,277.3z"/>
</g>
</svg>